<svg width="25" height="24" viewBox="0 0 25 24" fill="none" xmlns="http://www.w3.org/2000/svg">
<path d="M20.2358 17.3527C19.9459 18.0223 19.6028 18.6387 19.2053 19.2054C18.6635 19.9779 18.2198 20.5127 17.8779 20.8096C17.3479 21.2971 16.78 21.5467 16.1719 21.5609C15.7353 21.5609 15.2088 21.4367 14.596 21.1847C13.9811 20.9339 13.4161 20.8096 12.8994 20.8096C12.3576 20.8096 11.7764 20.9339 11.1549 21.1847C10.5323 21.4367 10.0308 21.568 9.64736 21.581C9.06421 21.6059 8.48296 21.3491 7.90277 20.8096C7.53246 20.4867 7.06928 19.933 6.51441 19.1486C5.91908 18.311 5.42964 17.3396 5.0462 16.2323C4.63555 15.0362 4.42969 13.8779 4.42969 12.7566C4.42969 11.4721 4.70724 10.3643 5.26318 9.43589C5.70009 8.69019 6.28134 8.10195 7.00883 7.67012C7.73631 7.2383 8.52236 7.01824 9.36886 7.00416C9.83204 7.00416 10.4394 7.14743 11.1943 7.42901C11.9469 7.71153 12.4302 7.8548 12.6421 7.8548C12.8005 7.8548 13.3374 7.68728 14.2476 7.35329C15.1083 7.04356 15.8347 6.91531 16.4298 6.96583C18.0423 7.09597 19.2538 7.73165 20.0595 8.87688C18.6173 9.75071 17.9039 10.9746 17.9181 12.5447C17.9311 13.7677 18.3748 14.7853 19.2467 15.5934C19.6419 15.9684 20.0832 16.2583 20.5742 16.4642C20.4677 16.7729 20.3553 17.0687 20.2358 17.3527ZM16.5374 2.79946C16.5374 3.75801 16.1873 4.65301 15.4892 5.48141C14.6469 6.46621 13.628 7.03528 12.5231 6.94548C12.509 6.83048 12.5009 6.70945 12.5009 6.58227C12.5009 5.66206 12.9015 4.67726 13.6128 3.87205C13.968 3.46435 14.4197 3.12536 14.9675 2.85494C15.5141 2.58856 16.0311 2.44124 16.5173 2.41602C16.5315 2.54416 16.5374 2.67231 16.5374 2.79945V2.79946Z" fill="white"/>
</svg>
