<svg width="40" height="40" viewBox="0 0 40 40" fill="none" xmlns="http://www.w3.org/2000/svg">
<path d="M33.238 11.7618V33.4285C33.238 34.3125 32.8868 35.1603 32.2616 35.7855C31.6365 36.4106 30.7886 36.7618 29.9046 36.7618H9.90462C9.02057 36.7618 8.17272 36.4106 7.54759 35.7855C6.92247 35.1603 6.57129 34.3125 6.57129 33.4285V6.7618C6.57129 5.87775 6.92247 5.02985 7.54759 4.40472C8.17272 3.7796 9.02057 3.42847 9.90462 3.42847H24.9046L33.238 11.7618Z" fill="#77ABFF"/>
<path d="M26.6667 11.6666H33.3333L25 3.33325V9.99992C25 10.442 25.1757 10.8659 25.4882 11.1784C25.8007 11.491 26.2247 11.6666 26.6667 11.6666Z" fill="#0364FF"/>
<path d="M27.5003 18.3333H12.5003C12.0401 18.3333 11.667 18.7064 11.667 19.1666V20.8333C11.667 21.2934 12.0401 21.6666 12.5003 21.6666H27.5003C27.9605 21.6666 28.3337 21.2934 28.3337 20.8333V19.1666C28.3337 18.7064 27.9605 18.3333 27.5003 18.3333Z" fill="white"/>
<path d="M27.5003 25H12.5003C12.0401 25 11.667 25.3732 11.667 25.8333V27.5C11.667 27.9602 12.0401 28.3333 12.5003 28.3333H27.5003C27.9605 28.3333 28.3337 27.9602 28.3337 27.5V25.8333C28.3337 25.3732 27.9605 25 27.5003 25Z" fill="white"/>
</svg>
