<svg width="20" height="24" viewBox="0 0 20 24" fill="none" xmlns="http://www.w3.org/2000/svg">
<path d="M2.08325 7.41669V16.5834C2.08272 17.0114 2.24684 17.423 2.5416 17.7333C2.83636 18.0436 3.23918 18.2286 3.66661 18.25H16.3333C16.7607 18.2286 17.1635 18.0436 17.4583 17.7333C17.753 17.423 17.9171 17.0114 17.9166 16.5834V7.41669H2.08325Z" fill="#FCE7B1"/>
<path d="M9.99992 13.6667L17.9166 7.83333V7.41667C17.9171 6.98871 17.753 6.57693 17.4583 6.26667C17.1635 5.95639 16.7607 5.7714 16.3333 5.75H3.66661C3.23918 5.7714 2.83636 5.95639 2.5416 6.26667C2.24684 6.57693 2.08272 6.98871 2.08325 7.41667V7.83333L9.99992 13.6667Z" fill="#FFB800"/>
</svg>
