<svg width="20" height="20" viewBox="0 0 20 20" fill="none" xmlns="http://www.w3.org/2000/svg">
<mask id="mask0_126_2974" style="mask-type:alpha" maskUnits="userSpaceOnUse" x="0" y="0" width="20" height="20">
<rect width="20" height="20" fill="#D9D9D9"/>
</mask>
<g mask="url(#mask0_126_2974)">
<path d="M10.0001 12.4583C9.88897 12.4583 9.7848 12.441 9.68758 12.4062C9.59036 12.3715 9.50008 12.3125 9.41675 12.2292L5.58341 8.39583C5.43064 8.24306 5.35425 8.04861 5.35425 7.8125C5.35425 7.57639 5.43064 7.38194 5.58341 7.22917C5.73619 7.07639 5.93064 7 6.16675 7C6.40286 7 6.5973 7.07639 6.75008 7.22917L10.0001 10.4792L13.2501 7.22917C13.4029 7.07639 13.5973 7 13.8334 7C14.0695 7 14.264 7.07639 14.4167 7.22917C14.5695 7.38194 14.6459 7.57639 14.6459 7.8125C14.6459 8.04861 14.5695 8.24306 14.4167 8.39583L10.5834 12.2292C10.5001 12.3125 10.4098 12.3715 10.3126 12.4062C10.2154 12.441 10.1112 12.4583 10.0001 12.4583Z" fill="#8F98A8"/>
</g>
</svg>
