<svg width="24" height="24" viewBox="0 0 24 24" fill="none" xmlns="http://www.w3.org/2000/svg">
<g id="System / Mobile_Button">
<path id="Union" fill-rule="evenodd" clip-rule="evenodd" d="M10.1617 2L10.2002 2H13.8002L13.8388 2C14.3659 1.99998 14.8205 1.99997 15.1949 2.03058C15.5902 2.06289 15.9831 2.13424 16.3614 2.32698L15.9132 3.20654L16.3614 2.32698C16.9248 2.61405 17.3851 3.07224 17.6732 3.63781C17.8659 4.016 17.9372 4.40906 17.9695 4.80397C18 5.17815 18 5.6323 18 6.15839V6.19691V17.8036V17.8421C18 18.3682 18 18.8222 17.9695 19.1962C17.9372 19.591 17.8659 19.9838 17.6732 20.3619C17.3854 20.9269 16.9254 21.3859 16.3614 21.6732C15.9833 21.8659 15.5905 21.9372 15.1957 21.9695C14.8217 22 14.3677 22 13.8416 22H13.8031H10.1969H10.1584C9.6323 22 9.17815 22 8.80397 21.9695C8.40906 21.9372 8.016 21.8659 7.63781 21.6732C7.07276 21.3853 6.61431 20.9258 6.32698 20.3619C6.13421 19.9835 6.06288 19.5904 6.03057 19.1951C5.99997 18.8206 5.99998 18.3659 6 17.8388L6 17.8002V6.2002L6 6.16168C5.99998 5.6345 5.99997 5.17965 6.03057 4.80499C6.06286 4.40962 6.13416 4.01625 6.32698 3.63781C6.6146 3.07332 7.07332 2.6146 7.63781 2.32698C8.01625 2.13416 8.40962 2.06286 8.80499 2.03057C9.17965 1.99997 9.6345 1.99998 10.1617 2ZM8.9678 4.02393C8.69595 4.04614 8.59517 4.08383 8.54579 4.109C8.35763 4.20487 8.20487 4.35763 8.109 4.54579C8.08383 4.59517 8.04614 4.69595 8.02393 4.9678C8.00078 5.25126 8 5.62365 8 6.2002V17.8002C8 18.3768 8.00078 18.7489 8.02393 19.0322C8.04612 19.3037 8.08378 19.4044 8.109 19.4539C8.20516 19.6426 8.35819 19.7956 8.54579 19.8912L8.09765 20.7707L8.54579 19.8912C8.59501 19.9163 8.69554 19.9539 8.96686 19.9761C9.2498 19.9992 9.62146 20 10.1969 20H13.8031C14.3786 20 14.75 19.9992 15.0327 19.9761C15.3036 19.954 15.4041 19.9164 15.4534 19.8912C15.6421 19.7951 15.7956 19.6415 15.8912 19.4539C15.9164 19.4046 15.954 19.3041 15.9761 19.0332C15.9992 18.7505 16 18.379 16 17.8036V6.19691C16 5.62146 15.9992 5.2498 15.9761 4.96686C15.9539 4.69554 15.9163 4.59501 15.8912 4.54579C15.7959 4.35871 15.6427 4.20542 15.4534 4.109L15.9074 3.21799L15.4534 4.109C15.4039 4.08375 15.3032 4.04611 15.0319 4.02393C14.7488 4.00078 14.3768 4 13.8002 4H10.2002C9.62365 4 9.25126 4.00078 8.9678 4.02393ZM11 18C11 17.4477 11.4477 17 12 17H12.002C12.2713 17 12.5292 17.1086 12.7173 17.3012C12.9055 17.4938 13.008 17.7542 13.0017 18.0234L13.0017 18.0254C12.9955 18.2906 12.8841 18.5425 12.6921 18.7256C12.5002 18.9087 12.2433 19.0081 11.978 19.0017L11.9761 19.0017C11.4333 18.9887 11 18.5449 11 18.002V18Z" fill="#212121"/>
</g>
</svg>
