<svg width="60" height="60" viewBox="0 0 60 60" fill="none" xmlns="http://www.w3.org/2000/svg">
<g id="error">
<mask id="mask0_1191_32285" style="mask-type:alpha" maskUnits="userSpaceOnUse" x="0" y="0" width="60" height="60">
<rect id="Bounding box" width="60" height="60" fill="#D9D9D9"/>
</mask>
<g mask="url(#mask0_1191_32285)">
<path id="error_2" d="M30 42.5C30.7083 42.5 31.3021 42.2604 31.7813 41.7812C32.2604 41.3021 32.5 40.7083 32.5 40C32.5 39.2917 32.2604 38.6979 31.7813 38.2188C31.3021 37.7396 30.7083 37.5 30 37.5C29.2917 37.5 28.6979 37.7396 28.2188 38.2188C27.7396 38.6979 27.5 39.2917 27.5 40C27.5 40.7083 27.7396 41.3021 28.2188 41.7812C28.6979 42.2604 29.2917 42.5 30 42.5ZM30 32.5C30.7083 32.5 31.3021 32.2604 31.7813 31.7813C32.2604 31.3021 32.5 30.7083 32.5 30V20C32.5 19.2917 32.2604 18.6979 31.7813 18.2188C31.3021 17.7396 30.7083 17.5 30 17.5C29.2917 17.5 28.6979 17.7396 28.2188 18.2188C27.7396 18.6979 27.5 19.2917 27.5 20V30C27.5 30.7083 27.7396 31.3021 28.2188 31.7813C28.6979 32.2604 29.2917 32.5 30 32.5ZM30 55C26.5417 55 23.2917 54.3438 20.25 53.0312C17.2083 51.7188 14.5625 49.9375 12.3125 47.6875C10.0625 45.4375 8.28125 42.7917 6.96875 39.75C5.65625 36.7083 5 33.4583 5 30C5 26.5417 5.65625 23.2917 6.96875 20.25C8.28125 17.2083 10.0625 14.5625 12.3125 12.3125C14.5625 10.0625 17.2083 8.28125 20.25 6.96875C23.2917 5.65625 26.5417 5 30 5C33.4583 5 36.7083 5.65625 39.75 6.96875C42.7917 8.28125 45.4375 10.0625 47.6875 12.3125C49.9375 14.5625 51.7188 17.2083 53.0312 20.25C54.3438 23.2917 55 26.5417 55 30C55 33.4583 54.3438 36.7083 53.0312 39.75C51.7188 42.7917 49.9375 45.4375 47.6875 47.6875C45.4375 49.9375 42.7917 51.7188 39.75 53.0312C36.7083 54.3438 33.4583 55 30 55Z" fill="#EC3E3E"/>
</g>
</g>
</svg>
