<svg width="16" height="16" viewBox="0 0 16 16" fill="none" xmlns="http://www.w3.org/2000/svg">
<mask id="mask0_156_3456" style="mask-type:alpha" maskUnits="userSpaceOnUse" x="0" y="0" width="16" height="16">
<rect width="16" height="16" fill="#D9D9D9"/>
</mask>
<g mask="url(#mask0_156_3456)">
<path d="M5.57956 4.84866L7.18372 2.80323C7.29067 2.66879 7.41706 2.56795 7.56289 2.50073C7.70872 2.43351 7.85942 2.3999 8.01497 2.3999C8.17053 2.3999 8.31879 2.43351 8.45977 2.50073C8.60074 2.56795 8.7247 2.66879 8.83164 2.80323L10.4358 4.84866L12.8858 5.6409C13.1094 5.71772 13.2844 5.84496 13.4108 6.02262C13.5372 6.20027 13.6004 6.39953 13.6004 6.6204C13.6004 6.72603 13.5858 6.82927 13.5566 6.9301C13.5275 7.03093 13.4789 7.12936 13.4108 7.22539L11.8358 9.40046L11.8941 11.734C11.8941 12.0317 11.7921 12.2837 11.5879 12.4902C11.3837 12.6967 11.1407 12.7999 10.8587 12.7999C10.8393 12.7999 10.7469 12.7855 10.5816 12.7567L8.00039 12.0509L5.41914 12.7567C5.37053 12.7759 5.32435 12.7879 5.2806 12.7927C5.23685 12.7975 5.19067 12.7999 5.14206 12.7999C4.86011 12.7999 4.61463 12.6967 4.4056 12.4902C4.19657 12.2837 4.09692 12.0317 4.10664 11.734L4.16497 9.40046L2.58997 7.22539C2.52192 7.12936 2.47331 7.03333 2.44414 6.9373C2.41497 6.84127 2.40039 6.74044 2.40039 6.63481C2.40039 6.41394 2.46359 6.21228 2.58997 6.02982C2.71636 5.84736 2.89622 5.71772 3.12956 5.6409L5.57956 4.84866Z" fill="#FFB800"/>
</g>
</svg>
