<svg width="60" height="13" viewBox="0 0 60 13" fill="none" xmlns="http://www.w3.org/2000/svg">
<path d="M45.4938 0.35642C49.394 -0.118807 55.9816 -0.118807 59.8817 0.35642L59.7014 4.22377L58.0136 4.12545C58.751 5.33809 59.0296 6.94403 58.8001 8.77938C59.2262 8.81216 59.6195 8.84493 59.98 8.89409L59.7834 12.7778C54.9983 12.4337 50.3772 12.4337 45.5922 12.7778L45.3955 8.89409C45.7396 8.86132 46.1002 8.81216 46.4771 8.77938C46.2476 6.94403 46.5098 5.35448 47.2636 4.12545L45.6741 4.22377L45.4938 0.35642ZM51.5079 8.54996H53.7693C53.9823 6.99319 53.8021 5.23977 53.3105 3.96158H51.9831C51.4915 5.23977 51.2949 6.99319 51.5079 8.54996Z" fill="#0364FF"/>
<path d="M36.5398 0.585747C36.2776 3.63374 36.212 4.24007 36.212 5.68213C36.212 7.2389 36.4742 7.51748 38.0474 7.51748C39.4567 7.51748 41.8164 7.38639 44.4056 7.17336L44.5695 12.1059C42.3736 12.4336 39.8336 12.7614 36.0154 12.7614C32.148 12.7614 30.4766 11.5979 30.4766 7.73052C30.4766 5.32161 30.6404 3.04381 31.0501 0.421875L36.5398 0.585747Z" fill="#0364FF"/>
<path d="M15.1647 0.35642C19.0649 -0.118807 25.6525 -0.118807 29.5526 0.35642L29.3723 4.22377L27.6845 4.12545C28.4219 5.33809 28.7005 6.94403 28.471 8.77938C28.8971 8.81216 29.2904 8.84493 29.6509 8.89409L29.4543 12.7778C24.6692 12.4337 20.0481 12.4337 15.2631 12.7778L15.0664 8.89409C15.4105 8.86132 15.771 8.81216 16.148 8.77938C15.9185 6.94403 16.1807 5.35448 16.9345 4.12545L15.345 4.22377L15.1647 0.35642ZM21.1788 8.54996H23.4402C23.6532 6.99319 23.473 5.23977 22.9814 3.96158H21.654C21.1624 5.23977 20.9658 6.99319 21.1788 8.54996Z" fill="#0364FF"/>
<path d="M7.66916 0.012207C7.17754 0.880723 6.78425 1.63453 6.45651 2.37195C7.52167 2.14253 8.60322 2.01143 9.5209 2.01143C13.0441 2.01143 14.2404 3.40433 14.2404 7.53388V12.5319L9.16038 12.6958V8.17298C9.16038 7.17337 8.78348 6.82924 7.63638 6.82924C7.09561 6.82924 6.12877 6.92756 5.26026 7.17337C5.12916 8.61543 5.08 10.3688 5.08 12.6958L0 12.5319C0 4.10898 0.573548 2.79801 2.47445 0.012207H7.66916Z" fill="#0364FF"/>
</svg>
